<svg width="16" height="24" viewBox="0 0 16 24" fill="none" xmlns="http://www.w3.org/2000/svg">
<path d="M4.08984 23.9854H12.5439C13.4606 23.9854 14.1947 23.7132 14.7461 23.1689C15.3047 22.6247 15.584 21.9085 15.584 21.0205V3.44629C15.584 2.55827 15.3047 1.84212 14.7461 1.29785C14.1947 0.753581 13.4606 0.481445 12.5439 0.481445H4.08984C3.16602 0.481445 2.41764 0.753581 1.84473 1.29785C1.27897 1.84212 0.996094 2.55827 0.996094 3.44629V21.0205C0.996094 21.9157 1.27897 22.6318 1.84473 23.1689C2.41764 23.7132 3.16602 23.9854 4.08984 23.9854ZM4.45508 21.8154C4.02539 21.8154 3.69238 21.7044 3.45605 21.4824C3.22689 21.2604 3.1123 20.9453 3.1123 20.5371V3.92969C3.1123 3.52148 3.22689 3.20638 3.45605 2.98438C3.69238 2.76237 4.02539 2.65137 4.45508 2.65137H5.8623C6.03418 2.65137 6.12012 2.7373 6.12012 2.90918V3.17773C6.12012 3.41406 6.19173 3.60742 6.33496 3.75781C6.47819 3.90104 6.66439 3.97266 6.89355 3.97266H9.69727C9.93359 3.97266 10.1198 3.90104 10.2559 3.75781C10.3991 3.60742 10.4707 3.41406 10.4707 3.17773V2.90918C10.4707 2.7373 10.5566 2.65137 10.7285 2.65137H12.1465C12.569 2.65137 12.8949 2.76595 13.124 2.99512C13.3604 3.21712 13.4785 3.52865 13.4785 3.92969V20.5371C13.4785 20.9453 13.3604 21.2604 13.124 21.4824C12.8949 21.7044 12.569 21.8154 12.1465 21.8154H4.45508ZM5.98047 20.9775H10.6211C10.7786 20.9775 10.9076 20.9274 11.0078 20.8271C11.1081 20.7269 11.1582 20.598 11.1582 20.4404C11.1582 20.2757 11.1081 20.1432 11.0078 20.043C10.9076 19.9427 10.7786 19.8926 10.6211 19.8926H5.98047C5.83008 19.8926 5.70117 19.9427 5.59375 20.043C5.48633 20.1432 5.43262 20.2757 5.43262 20.4404C5.43262 20.598 5.48633 20.7269 5.59375 20.8271C5.70117 20.9274 5.83008 20.9775 5.98047 20.9775Z" fill="#8C10FE"/>
</svg>
