<svg width="13" height="13" viewBox="0 0 13 13" fill="none" xmlns="http://www.w3.org/2000/svg">
<path d="M0.743164 6.56445C0.743164 7.0498 1.14648 7.44629 1.625 7.44629H5.64453V11.4658C5.64453 11.9512 6.04102 12.3477 6.52637 12.3477C7.01172 12.3477 7.4082 11.9512 7.4082 11.4658V7.44629H11.4277C11.9131 7.44629 12.3096 7.0498 12.3096 6.56445C12.3096 6.0791 11.9131 5.68262 11.4277 5.68262H7.4082V1.66309C7.4082 1.18457 7.01172 0.78125 6.52637 0.78125C6.04102 0.78125 5.64453 1.18457 5.64453 1.66309V5.68262H1.625C1.14648 5.68262 0.743164 6.0791 0.743164 6.56445Z" fill="#222224"/>
</svg>
