<svg width="24" height="25" viewBox="0 0 24 25" fill="none" xmlns="http://www.w3.org/2000/svg">
<path d="M6.83475 6.2932H17.4096" stroke="#BDBDC1" stroke-width="1.69953" stroke-linecap="round" stroke-linejoin="round"/>
<path d="M6.83475 11.3918H17.4096" stroke="#BDBDC1" stroke-width="1.69953" stroke-linecap="round" stroke-linejoin="round"/>
<path d="M20.0533 1.19461H4.19102C2.73093 1.19461 1.5473 2.33597 1.5473 3.74391V21.589C1.5473 22.9969 2.73093 24.1383 4.19102 24.1383H20.0533C21.5134 24.1383 22.697 22.9969 22.697 21.589V3.74391C22.697 2.33597 21.5134 1.19461 20.0533 1.19461Z" stroke="#BDBDC1" stroke-width="1.69953" stroke-linecap="round" stroke-linejoin="round"/>
<path d="M1.5473 16.4904H7.49566C8.02153 16.4904 8.52586 16.6918 8.8977 17.0504C9.26955 17.4089 9.47844 17.8953 9.47844 18.4023V18.4023C9.47844 18.9094 9.68734 19.3957 10.0592 19.7543C10.431 20.1129 10.9354 20.3143 11.4612 20.3143H12.7831C13.309 20.3143 13.8133 20.1129 14.1851 19.7543C14.557 19.3957 14.7659 18.9094 14.7659 18.4023C14.7659 17.8953 14.9748 17.4089 15.3466 17.0504C15.7185 16.6918 16.2228 16.4904 16.7487 16.4904H22.697" stroke="#BDBDC1" stroke-width="1.69953" stroke-linecap="round" stroke-linejoin="round"/>
</svg>
