<svg width="32" height="32" viewBox="0 0 32 32" fill="none" xmlns="http://www.w3.org/2000/svg">
<path d="M21.8692 22.4116C21.3878 21.3329 20.6045 20.4166 19.6138 19.7733C18.6232 19.1301 17.4674 18.7873 16.2862 18.7865C15.105 18.7873 13.9493 19.1301 12.9586 19.7733C11.9679 20.4166 11.1846 21.3329 10.7033 22.4116" stroke="#8C10FE" stroke-width="1.69953" stroke-linecap="round" stroke-linejoin="round"/>
<path d="M16.2862 14.1978C17.9757 14.1978 19.3454 12.8281 19.3454 11.1386C19.3454 9.4491 17.9757 8.07947 16.2862 8.07947C14.5967 8.07947 13.2271 9.4491 13.2271 11.1386C13.2271 12.8281 14.5967 14.1978 16.2862 14.1978Z" stroke="#8C10FE" stroke-width="1.69953" stroke-linecap="round" stroke-linejoin="round"/>
<path d="M16.2862 29.4935C23.8891 29.4935 30.0524 23.3302 30.0524 15.7273C30.0524 8.12446 23.8891 1.96112 16.2862 1.96112C8.68336 1.96112 2.52002 8.12446 2.52002 15.7273C2.52002 23.3302 8.68336 29.4935 16.2862 29.4935Z" stroke="#222224" stroke-width="1.69953" stroke-linecap="round" stroke-linejoin="round"/>
</svg>
